<svg width="300" height="301" viewBox="0 0 300 301" fill="none" xmlns="http://www.w3.org/2000/svg">
<path d="M124.924 109.501C124.924 109.501 56.9978 235.595 202.547 244.221L209.555 250.15V208.642L160.655 193.548L159.218 93.2808" fill="#E2E2E2"/>
<path d="M160.357 172.755C148.717 177.585 139.953 198.697 139.953 224.012C139.953 225.283 139.975 226.544 140.02 227.792C151.874 235.043 167.865 240.464 189.176 243.032C190.348 236.76 190.93 230.392 190.914 224.012C190.941 216.669 190.161 209.344 188.591 202.171L160.656 193.548L160.357 172.755Z" fill="black"/>
<path d="M133.991 108.619L176.072 105.736L183.724 108.852L187.32 292.63H148.234L152.367 285.224L133.991 108.619Z" fill="#EDEEEF"/>
<path d="M138.745 20.2373V26.8797C138.745 32.0159 142.251 36.4885 147.239 37.7144L157.809 40.3124V14.3419L149.02 12.1817C146.545 11.5734 143.928 12.1366 141.922 13.709C139.916 15.2815 138.745 17.6887 138.745 20.2373V20.2373Z" fill="#EDEEEF"/>
<path d="M138.745 26.8799C138.745 32.016 142.251 36.4886 147.239 37.7145L157.809 40.3125" stroke="black" stroke-width="1.5" stroke-linecap="round" stroke-linejoin="round"/>
<path d="M149.514 25.562C149.795 25.562 150.024 25.3337 150.024 25.0522C150.024 24.7707 149.795 24.5425 149.514 24.5425C149.232 24.5425 149.004 24.7707 149.004 25.0522C149.004 25.3337 149.232 25.562 149.514 25.562Z" fill="black"/>
<path d="M141.685 25.562C141.966 25.562 142.195 25.3337 142.195 25.0522C142.195 24.7707 141.966 24.5425 141.685 24.5425C141.403 24.5425 141.175 24.7707 141.175 25.0522C141.175 25.3337 141.403 25.562 141.685 25.562Z" fill="black"/>
<path d="M143.982 28.0927V20.2373H140.046" stroke="black" stroke-width="1.5" stroke-linecap="round" stroke-linejoin="round"/>
<path d="M150.474 20.2373H146.539" stroke="black" stroke-width="1.5" stroke-linecap="round" stroke-linejoin="round"/>
<path d="M156.553 24.2627V26.9906C158.025 26.9906 159.218 25.7977 159.218 24.3262C159.218 24.2444 159.214 24.1636 159.207 24.0837C159.058 22.4291 156.553 22.6014 156.553 24.2627Z" fill="#EDEEEF"/>
<path d="M156.553 26.9906C158.025 26.9906 159.218 25.7977 159.218 24.3262" stroke="black" stroke-width="1.5" stroke-linecap="round" stroke-linejoin="round"/>
<path d="M146.133 29.0107C146.464 29.3416 146.913 29.5275 147.381 29.5275C147.849 29.5275 148.298 29.3416 148.629 29.0107" stroke="#DC911B" stroke-width="1.5" stroke-linecap="round" stroke-linejoin="round"/>
<path d="M143.982 28.0991L145.703 28.5222" stroke="black" stroke-width="1.5" stroke-linecap="round" stroke-linejoin="round"/>
<path d="M124.924 67.8705V109.501L183.898 123.996V77.631C183.898 61.1909 172.675 46.8748 156.71 42.9509H156.71C149.053 41.0691 140.957 42.8112 134.752 47.6755C128.548 52.5399 124.924 59.9864 124.924 67.8705V67.8705Z" fill="#DC911B"/>
<path d="M152.367 285.224L133.991 108.619" stroke="black" stroke-width="1.5" stroke-linecap="round" stroke-linejoin="round"/>
<path d="M144.842 36.8223C144.842 36.8223 144.842 45.3661 130.345 44.5967L127.026 41.278C127.026 41.278 128.86 3.44815 154.597 8.36407C158.665 9.14118 162.292 11.5505 164.265 15.1926C166.465 19.2561 166.819 25.1552 157.886 31.5537" stroke="black" stroke-width="1.5" stroke-linecap="round" stroke-linejoin="round"/>
<path d="M125.779 42.5737C125.914 42.5737 129.104 45.8982 129.104 45.8982" stroke="#DC911B" stroke-width="1.5" stroke-linecap="round" stroke-linejoin="round"/>
<path d="M138.745 23.7368C138.745 23.7368 147.434 21.5804 150.024 16.2793C150.024 16.2793 152.857 23.62 156.553 24.2624" stroke="black" stroke-width="1.5" stroke-linecap="round" stroke-linejoin="round"/>
<path d="M125.149 44.2363C125.149 44.2363 115.984 49.404 117.542 61.983C118.034 66.154 120.128 69.9702 123.383 72.6248C125.054 74.0293 127.364 74.3959 129.387 73.5777C131.411 72.7595 132.817 70.8904 133.042 68.7194C133.312 66.2715 133.831 63.7582 134.793 61.8632C138.745 54.0762 126.841 45.8985 126.841 45.8985" stroke="black" stroke-width="1.5" stroke-linecap="round" stroke-linejoin="round"/>
<path d="M171.68 50.7344C171.68 50.7344 230.513 116.731 173.368 150.515L164.024 134.855L177.322 110.621L164.024 88.3386" stroke="black" stroke-width="1.5" stroke-linecap="round" stroke-linejoin="round"/>
<path d="M173.368 150.514L158.786 126.075" stroke="black" stroke-width="1.5" stroke-linecap="round" stroke-linejoin="round"/>
<path d="M103.049 51.3157C102.52 48.951 102.756 46.4793 103.723 44.2572C106.485 37.7724 114.04 21.7118 121.308 21.2086C130.423 20.5776 127.547 28.6041 124.313 30.5209C122.508 31.6571 120.2 31.61 118.443 30.4011C118.443 30.4011 109.713 41.0084 110.656 44.2979C110.656 44.2979 115.687 44.2979 114.01 49.0898C112.543 53.2828 104.93 59.402 103.049 51.3157Z" fill="#DC911B"/>
<path d="M110.294 38.2262C110.294 38.2262 117.122 32.4524 110.294 30.4758C103.465 28.4991 88.1909 49.7036 90.7067 73.0645C93.2224 96.4254 109.903 111.88 124.924 99.1209" stroke="black" stroke-width="1.5" stroke-linecap="round" stroke-linejoin="round"/>
<path d="M110.541 53.6494C110.541 53.6494 111.651 64.0791 115.105 70.3686L118.994 67.0321" stroke="black" stroke-width="1.5" stroke-linecap="round" stroke-linejoin="round"/>
</svg>
