<svg width="51" height="50" viewBox="0 0 51 50" fill="none" xmlns="http://www.w3.org/2000/svg">
<path d="M28.6636 0H14.3557L28.6636 27.582L35.8253 13.791L28.6636 0Z" fill="#6F6F6E"/>
<path d="M14.3557 0L0.0400391 27.582H14.3557L21.5097 13.791L14.3557 0Z" fill="#3E3E3D"/>
<path opacity="0.2" d="M28.6636 0H14.3557L17.1365 2.22357H28.1898L34.1864 13.791H35.8253L28.6636 0Z" fill="white"/>
<g style="mix-blend-mode:multiply">
<path d="M14.3557 0L21.5097 13.791L19.8629 16.9623L14.3557 0Z" fill="#B1B1B0"/>
</g>
<path d="M23.2651 23.4994L21.4009 19.915L19.56 23.463L21.4165 27.0474L23.2651 23.4994Z" fill="#BD5519"/>
<path d="M24.0419 27.4726L21.4164 32.5273L18.791 27.4604L14.2547 36.2089L21.4164 49.9999H35.7243L24.0419 27.4726Z" fill="#BD5519"/>
<path d="M35.7244 22.418L21.4164 50H35.7244L50.04 22.418H35.7244Z" fill="#DC911B"/>
<path opacity="0.2" d="M35.7244 22.418L36.206 24.6415H47.2515L35.2505 47.7764L35.7244 50L50.04 22.418H35.7244Z" fill="white"/>
<g style="mix-blend-mode:multiply">
<path d="M21.4164 50L28.5704 36.209L26.9237 33.0255L21.4164 50Z" fill="#B1B1B0"/>
</g>
</svg>
